<svg width="162" height="46" viewBox="0 0 162 46" fill="none" xmlns="http://www.w3.org/2000/svg">
  <g clip-path="url(#clip0_61_4)">
    <path
      d="M100.022 19.0679C100.035 17.8839 101.006 16.9392 102.19 16.9522C103.374 16.9651 104.318 17.9356 104.305 19.1197L104.273 21.4619C104.234 24.1017 104.195 26.3598 104.286 29.8537C104.318 31.303 105.056 32.5776 106.078 33.5287C107.308 34.6739 108.899 35.3339 110.226 35.308C111.546 35.2821 112.988 34.6998 114.14 33.7487C115.143 32.9205 115.881 31.8335 116.036 30.643C116.152 29.7954 116.236 28.7861 116.321 27.835C116.547 25.2987 116.735 23.1959 117.88 20.9637C118.889 19.0032 120.533 17.4504 122.474 16.4216C124.428 15.3799 126.718 14.8623 128.989 14.9723H128.996C129.494 14.9982 129.973 15.0564 130.432 15.147C132.561 15.5611 134.541 16.6416 135.977 18.0133L135.97 18.0197C137.556 19.5338 138.52 21.4554 138.423 23.3706V23.377C138.41 23.6294 138.377 23.8752 138.339 24.1017C137.795 26.9033 134.392 28.0161 130.083 29.4331L126.213 30.7207C124.9 31.1606 123.561 31.6136 122.267 32.0406C122.726 32.7329 123.276 33.2958 123.891 33.7358C125.191 34.6739 126.809 35.1204 128.465 35.1786C129.552 35.211 130.717 34.9716 131.817 34.4863H131.823C132.858 34.0269 133.829 33.3346 134.605 32.4353C135.382 31.5359 136.74 31.4324 137.64 32.2088C138.539 32.9852 138.643 34.344 137.866 35.2433C136.682 36.615 135.181 37.6826 133.564 38.4008C131.875 39.1578 130.05 39.5201 128.329 39.4683C125.864 39.3907 123.425 38.6919 121.387 37.2232C120.474 36.5632 119.646 35.7545 118.941 34.7839C118.378 35.6445 117.679 36.4144 116.883 37.0744C115.02 38.6143 112.6 39.5654 110.316 39.6107C107.935 39.656 105.185 38.569 103.16 36.6926C101.362 35.0233 100.074 32.7135 100.009 29.9766C99.9187 26.4115 99.9575 24.1082 100.003 21.4101L100.035 19.0873L100.022 19.0679ZM85.0179 19.3396C82.7857 19.3396 80.8705 20.1225 79.3048 21.6948C77.7455 23.2606 76.9561 25.1693 76.9561 27.395C76.9561 29.6078 77.7455 31.51 79.3048 33.0758C80.8705 34.6481 82.7857 35.4439 85.0179 35.4439C87.2501 35.4439 89.1524 34.6416 90.7117 33.0758C92.2774 31.5036 93.0733 29.6078 93.0733 27.395C93.0733 25.1693 92.2774 23.267 90.7117 21.6948C89.1524 20.129 87.2501 19.3396 85.0179 19.3396ZM95.1761 6.04346C95.726 6.04346 96.2048 6.23756 96.5995 6.6193C97.0007 7.01398 97.2012 7.51218 97.2012 8.06215V27.395C97.2012 30.7271 95.9848 33.5999 93.6103 35.9486C91.2293 38.3037 88.363 39.4942 85.0179 39.4942C81.647 39.4942 78.7742 38.2972 76.3997 35.9292C74.0251 33.5611 72.8281 30.6948 72.8281 27.3303C72.8281 23.9788 74.0251 21.106 76.3997 18.7379C78.7742 16.3698 81.647 15.1729 85.0179 15.1729C88.0783 15.1729 90.7699 16.1887 93.0733 18.2203V8.06215C93.0733 7.49924 93.2803 7.00751 93.675 6.6193C94.0697 6.23109 94.5614 6.04346 95.1049 6.04346H95.1761ZM143.12 6.04346C143.676 6.04346 144.149 6.23109 144.556 6.6193C144.958 7.02045 145.158 7.49924 145.158 8.06215V15.1729H151.829V19.2944C148.387 19.2944 146.265 19.2944 142.816 19.2944C142.816 19.4367 142.816 19.6696 142.822 19.812C142.952 20.6531 144.382 21.4942 145.158 21.5395V33.1664C145.158 33.7746 145.372 34.2922 145.805 34.7257C146.239 35.1592 146.769 35.3727 147.39 35.3727H149.17C149.726 35.3727 150.198 35.5733 150.6 35.9744C151.007 36.3756 151.201 36.8544 151.201 37.4238V37.4626C151.201 38.032 151.001 38.5043 150.6 38.8925C150.198 39.2936 149.726 39.4942 149.17 39.4942H147.39C145.63 39.4942 144.129 38.8795 142.881 37.6437C141.645 36.395 141.03 34.9004 141.03 33.1664V8.06215C141.03 7.49924 141.231 7.02045 141.632 6.6193C142.033 6.23109 142.505 6.04346 143.062 6.04346H143.12ZM153.919 6.04346C154.475 6.04346 154.954 6.23109 155.349 6.6193C155.756 7.01398 155.95 7.50571 155.95 8.06215V15.1729H159.968C160.525 15.1729 160.997 15.367 161.398 15.7746C161.799 16.1757 162 16.661 162 17.2174V17.2627C162 17.8256 161.799 18.3044 161.398 18.6926C160.991 19.0808 160.518 19.2944 159.968 19.2944C157.853 19.2944 155.73 19.2944 153.615 19.2944C153.615 19.4367 153.615 19.6696 153.615 19.812C153.744 20.6531 155.174 21.5007 155.95 21.5395V33.1664C155.95 33.7681 156.164 34.2922 156.597 34.7257C157.031 35.1592 157.555 35.3727 158.183 35.3727H159.962C160.518 35.3727 160.991 35.5733 161.392 35.9744C161.793 36.3756 161.993 36.8609 161.993 37.4238V37.4626C161.993 38.032 161.793 38.5043 161.392 38.8925C160.984 39.2872 160.512 39.4942 159.962 39.4942H158.183C156.423 39.4942 154.915 38.886 153.673 37.6437C152.431 36.4079 151.822 34.9004 151.822 33.1664V8.06215C151.822 7.49924 152.016 7.01398 152.424 6.6193C152.825 6.23109 153.304 6.04346 153.86 6.04346H153.919ZM121.691 22.9306C120.953 24.3605 120.791 26.0427 120.61 28.0679C122.008 27.615 123.438 27.1297 124.842 26.6574L127.766 25.6675L128.737 25.3504C131.707 24.3799 134.049 23.61 134.114 23.2929L134.133 23.157C134.159 22.5359 133.719 21.7854 133.001 21.0995H132.994C132.127 20.2714 130.917 19.6114 129.61 19.3591H129.604C129.313 19.3008 129.034 19.2685 128.776 19.2555C127.288 19.1844 125.78 19.5273 124.486 20.2131C123.276 20.8537 122.28 21.7789 121.691 22.9241V22.9306Z"
      fill="#4146FF" />
    <path
      d="M29.2774 17.0752C32.0531 17.6187 34.7188 18.1492 37.391 18.6733C37.7922 18.7509 38.1998 18.8286 38.6009 18.9256C39.6685 19.1844 40.3285 19.8703 40.652 20.912C40.8008 21.3908 40.7361 21.8502 40.4449 22.2578C39.5715 23.4936 38.5751 24.6323 37.5851 25.7775C37.4169 25.9717 37.2487 25.9781 37.0158 25.9393C31.0826 24.8135 25.143 23.7006 19.2099 22.5683C17.3141 22.206 16.3242 20.5302 17.1718 19.1715C17.5147 18.6215 17.8899 18.0845 18.3299 17.6187C21.8044 13.8789 25.4277 10.2815 29.1027 6.73585C30.1897 5.68768 31.2703 4.63305 32.4414 3.66899C37.0481 -0.122524 42.2372 -0.866593 47.7692 0.983874C54.2264 3.13844 57.7397 7.92636 58.6843 14.4871C59.2667 18.5051 58.3285 22.3289 55.6822 25.6029C54.1229 27.531 52.4795 29.3685 50.739 31.1284C46.4622 35.4375 42.1337 39.6819 37.9604 44.0946C37.4234 44.6575 36.7958 45.0781 36.0646 45.3563C33.813 46.2233 31.9884 45.1428 31.652 42.7553C31.4902 41.61 31.7943 40.5748 32.3572 39.5978C33.069 38.362 34.0265 37.3139 35.0618 36.3498C38.5621 33.0759 41.8166 29.5497 45.207 26.1722C46.3328 25.0529 47.5945 24.0759 48.6362 22.8595C49.8332 21.4555 50.836 19.9544 51.276 18.1298C52.046 14.9077 50.5837 11.0709 47.8403 9.23334C44.6764 7.11112 41.3896 6.74232 37.9669 8.63161C37.4622 8.90983 36.9963 9.23981 36.5887 9.63449C34.2142 11.9573 31.8332 14.2671 29.588 16.7064C29.4974 16.8034 29.4198 16.9134 29.271 17.0946L29.2774 17.0752Z"
      fill="#4146FF" />
    <path
      d="M35.9871 27.602C34.7707 28.9607 33.6513 30.2224 32.5191 31.4776C30.8498 33.3281 29.1157 35.1203 27.3882 36.919C24.9748 39.4359 21.9145 40.7105 18.5758 41.2669C15.3084 41.8104 12.0992 41.2734 9.07117 39.9859C5.04673 38.2713 0.614666 33.1081 0.148814 28.676C-0.439971 23.0081 0.621137 17.8191 4.73616 13.5617C7.67362 10.5272 10.6046 7.49268 13.5421 4.46464C13.9626 4.02467 14.4026 3.60411 14.8879 3.23531C17.1589 1.54013 20.0769 2.63359 20.7045 5.39635C20.9957 6.67097 20.6851 7.79031 19.7987 8.70907C18.427 10.139 16.9971 11.5107 15.5996 12.9147C13.5938 14.9334 11.5881 16.9521 9.60173 18.9902C6.81309 21.8435 6.29547 26.8191 8.4371 30.0153C10.8828 33.6645 15.3796 35.1785 19.2164 33.6451C20.2128 33.2439 21.1057 32.681 21.8756 31.937C22.7944 31.0506 23.7584 30.1965 24.5607 29.213C25.9389 27.5373 27.7764 26.9808 29.8016 26.8061C31.872 26.6314 33.839 27.2526 36 27.5955L35.9871 27.602Z"
      fill="#4146FF" />
  </g>
  <defs>
    <clipPath id="clip0_61_4">
      <rect width="162" height="45.6352" fill="white" />
    </clipPath>
  </defs>
</svg>