<svg width="163" height="46" viewBox="0 0 163 46" fill="none" xmlns="http://www.w3.org/2000/svg">
  <g clip-path="url(#clip0_1088_14096)">
    <g clip-path="url(#clip1_1088_14096)">
      <path
        d="M84.6317 18.9293C82.3786 18.9293 80.4291 19.7283 78.8471 21.3103C77.2652 22.8922 76.4662 24.8258 76.4662 27.0789C76.4662 29.316 77.2652 31.2335 78.8471 32.8155C80.4291 34.3975 82.3626 35.2124 84.6317 35.2124C86.8848 35.2124 88.8183 34.3975 90.3843 32.8155C91.9663 31.2335 92.7812 29.316 92.7812 27.0789C92.7812 24.8258 91.9823 22.9082 90.3843 21.3103C88.8023 19.7283 86.8848 18.9293 84.6317 18.9293ZM94.9065 5.4746C95.4658 5.4746 95.9452 5.66635 96.3447 6.06584C96.7442 6.46533 96.9519 6.97667 96.9519 7.51997V27.0789C96.9519 30.4505 95.7215 33.3588 93.3245 35.7238C90.9116 38.1047 88.0194 39.3032 84.6317 39.3032C81.2281 39.3032 78.3198 38.0887 75.9229 35.6918C73.526 33.2949 72.3115 30.3866 72.3115 26.999C72.3115 23.6113 73.526 20.703 75.9229 18.3061C78.3198 15.9092 81.2281 14.6948 84.6317 14.6948C87.7317 14.6948 90.4482 15.7174 92.7812 17.7788V7.50399C92.7812 6.92873 92.989 6.43337 93.3885 6.04986C93.7879 5.65037 94.2833 5.45862 94.8426 5.45862H94.9065V5.4746ZM103.12 18.8015C103.12 18.2262 102.912 17.7468 102.513 17.3474C102.097 16.9319 101.618 16.7401 101.059 16.7401H100.995C100.451 16.7401 99.956 16.9479 99.5406 17.3474C99.1411 17.7468 98.9333 18.2582 98.9333 18.8015V29.1083C98.9333 31.9047 99.94 34.3176 101.937 36.315C103.935 38.2965 106.348 39.3191 109.176 39.3191C111.989 39.3191 114.417 38.3124 116.399 36.315C118.38 34.3335 119.403 31.9206 119.403 29.1083V26.4077C119.403 25.8325 119.195 25.3531 118.796 24.9536C118.412 24.5541 117.917 24.3464 117.358 24.3464H117.31C116.75 24.3464 116.239 24.5541 115.84 24.9536C115.44 25.3531 115.232 25.8644 115.232 26.4077V29.1083C115.232 30.7541 114.641 32.2083 113.475 33.3908C112.292 34.5732 110.854 35.1485 109.176 35.1485C107.482 35.1485 106.044 34.5573 104.862 33.3908C103.679 32.2243 103.104 30.7861 103.104 29.1083V18.8015H103.12ZM127.489 18.9133C130.013 18.9133 132.091 19.8881 133.721 21.8216L119.435 28.2613C119.371 27.8778 119.339 27.4783 119.339 27.0629C119.339 24.8098 120.122 22.8763 121.72 21.2943C123.318 19.6963 125.236 18.9133 127.505 18.9133H127.489ZM138.69 21.8855C137.716 19.7443 136.229 18.0025 134.216 16.7082C132.187 15.3819 129.934 14.7107 127.489 14.7107C124.085 14.7107 121.177 15.9092 118.78 18.3221C116.367 20.719 115.168 23.6273 115.168 27.0149C115.168 30.4186 116.367 33.3109 118.78 35.7078C121.193 38.1047 124.085 39.3191 127.489 39.3191C130.125 39.3191 132.538 38.5361 134.679 37.0021C136.789 35.5 138.259 33.5346 139.106 31.1057C139.345 30.4346 139.266 29.8114 138.85 29.2361C138.435 28.6448 137.859 28.3572 137.156 28.3572C136.166 28.3572 135.494 28.8206 135.175 29.7634C134.616 31.3614 133.641 32.6877 132.267 33.6784C130.844 34.7171 129.23 35.2284 127.473 35.2284C124.82 35.2284 122.679 34.1897 121.065 32.1124C122.327 31.5371 125.092 30.2907 129.342 28.3732C132.778 26.8232 135.542 25.5768 137.652 24.634C138.179 24.3943 138.546 24.0108 138.738 23.4835C138.93 22.9402 138.898 22.4288 138.674 21.9015L138.69 21.8855ZM143.404 5.4746C143.964 5.4746 144.443 5.66635 144.858 6.06584C145.274 6.46533 145.466 6.96069 145.466 7.51997V14.7107H153.551C154.11 14.7107 154.59 14.9185 155.005 15.318C155.405 15.7174 155.613 16.2128 155.613 16.7721V16.82C155.613 17.3793 155.405 17.8747 155.005 18.2582C154.59 18.6577 154.11 18.8654 153.551 18.8654H145.482H145.466H143.452C143.452 19.0252 143.452 19.1051 143.452 19.3128C143.564 19.968 144.571 20.6551 145.466 20.8149V32.8954C145.466 33.5186 145.689 34.0299 146.121 34.4774C146.552 34.9088 147.095 35.1325 147.719 35.1325H149.524C150.084 35.1325 150.563 35.3403 150.979 35.7397C151.394 36.1392 151.586 36.6346 151.586 37.2099V37.2418C151.586 37.8171 151.378 38.2965 150.979 38.68C150.563 39.0795 150.1 39.2872 149.524 39.2872H147.719C145.945 39.2872 144.427 38.664 143.149 37.4176C141.902 36.1552 141.279 34.6372 141.279 32.8954V7.50399C141.279 6.92873 141.487 6.44935 141.886 6.04986C142.302 5.65037 142.765 5.45862 143.34 5.45862H143.404V5.4746ZM154.334 5.4746C154.893 5.4746 155.373 5.66635 155.788 6.06584C156.204 6.46533 156.396 6.96069 156.396 7.51997V14.7107H160.454C161.014 14.7107 161.493 14.9025 161.908 15.318C162.324 15.7334 162.516 16.2128 162.516 16.7721V16.82C162.516 17.3793 162.308 17.8747 161.908 18.2582C161.493 18.6577 161.014 18.8654 160.454 18.8654H156.412H156.396H154.382C154.382 19.0252 154.382 19.1051 154.382 19.3128C154.494 19.968 155.485 20.6551 156.396 20.8149V32.8954C156.396 33.5026 156.619 34.0299 157.051 34.4774C157.482 34.9088 158.025 35.1325 158.649 35.1325H160.454C161.014 35.1325 161.493 35.3403 161.908 35.7397C162.308 36.1392 162.516 36.6346 162.516 37.2099V37.2418C162.516 37.8171 162.308 38.2965 161.908 38.68C161.493 39.0795 161.014 39.2872 160.454 39.2872H158.649C156.875 39.2872 155.341 38.664 154.079 37.4176C152.816 36.1712 152.209 34.6372 152.209 32.8954V7.50399C152.209 6.92873 152.401 6.44935 152.816 6.04986C153.216 5.65037 153.695 5.45862 154.27 5.45862H154.334V5.4746Z"
        fill="white" />
      <path
        d="M29.0071 16.804C31.7076 17.3314 34.3123 17.8427 36.901 18.354C37.3004 18.4339 37.684 18.4979 38.0834 18.5937C39.1221 18.8494 39.7613 19.5205 40.0809 20.5272C40.2247 20.9907 40.1608 21.4381 39.8731 21.8376C39.0262 23.036 38.0515 24.1546 37.0927 25.2572C36.9329 25.4489 36.7571 25.4489 36.5334 25.417C30.7489 24.3144 24.9803 23.2438 19.1957 22.1412C17.3421 21.7896 16.3833 20.1597 17.2142 18.8334C17.5498 18.3061 17.9173 17.7788 18.3488 17.3154C21.7364 13.6721 25.2679 10.1725 28.8313 6.72097C29.886 5.69829 30.9406 4.6756 32.0752 3.73281C36.5654 0.0415511 41.6149 -0.677526 47 1.11218C53.2959 3.20549 56.6995 7.8715 57.6264 14.2633C58.1856 18.1783 57.2748 21.9015 54.7021 25.0814C53.1841 26.951 51.5861 28.7567 49.8923 30.4665C45.7376 34.6531 41.519 38.7918 37.4443 43.0903C36.9169 43.6336 36.3097 44.049 35.6066 44.3207C33.4174 45.1676 31.6437 44.113 31.3081 41.78C31.1483 40.6614 31.452 39.6547 31.9953 38.7119C32.6824 37.5134 33.6252 36.4908 34.6319 35.548C38.0355 32.3521 41.1994 28.9325 44.5072 25.6407C45.6098 24.5541 46.8402 23.5953 47.8469 22.4128C49.0134 21.0546 49.9882 19.5845 50.4196 17.8107C51.1706 14.6788 49.7485 10.9396 47.0799 9.14986C43.9959 7.0885 40.8 6.72097 37.4602 8.55862C36.9649 8.83027 36.5175 9.14986 36.118 9.53336C33.8009 11.7865 31.4839 14.0396 29.2947 16.4205C29.1989 16.5164 29.1349 16.6283 28.9911 16.804H29.0071Z"
        fill="#06ECB7" />
      <path
        d="M35.5427 27.0628L35.3989 27.2226L35.3829 27.2386C34.2643 28.501 33.2257 29.6675 32.171 30.834C30.5411 32.6397 28.8633 34.3814 27.1694 36.1232C24.8205 38.5681 21.8483 39.8145 18.5885 40.3578C15.4085 40.8851 12.2766 40.3578 9.33634 39.1114C5.42137 37.4335 1.10691 32.416 0.643505 28.1015C0.0682431 22.5726 1.10691 17.5231 5.10178 13.3844C7.96211 10.4282 10.8224 7.47199 13.6828 4.53177C14.0982 4.10032 14.5137 3.68486 14.9931 3.33331C17.1982 1.68742 20.0426 2.74207 20.6498 5.4426C20.9374 6.689 20.6338 7.77561 19.7709 8.67046C18.4287 10.0607 17.0385 11.4029 15.6802 12.7612C13.7307 14.7267 11.7812 16.6922 9.83171 18.6736C7.1152 21.454 6.61983 26.2958 8.69716 29.4118C11.0781 32.9593 15.4565 34.4454 19.1957 32.9433C20.1704 32.5598 21.0333 32.0005 21.7844 31.2814C22.6792 30.4185 23.622 29.5876 24.405 28.6288C25.7473 26.9989 27.537 26.4556 29.5025 26.2798C31.436 26.1201 33.2896 26.6314 35.303 27.0149H35.319L35.5427 27.0469V27.0628Z"
        fill="#06ECB7" />
    </g>
  </g>
  <defs>
    <clipPath id="clip0_1088_14096">
      <rect width="162" height="45.6352" fill="white" transform="translate(0.5 0.182373)" />
    </clipPath>
    <clipPath id="clip1_1088_14096">
      <rect width="162" height="44.4288" fill="white" transform="translate(0.5 0.182373)" />
    </clipPath>
  </defs>
</svg>